<svg width="50" height="50" viewBox="0 0 50 50" fill="none" xmlns="http://www.w3.org/2000/svg">
<path d="M45.841 0H4.16736C1.86698 0 0 2.07407 0 4.62963V36.1111C0 38.6667 1.86698 40.7407 4.16736 40.7407H17.6779L15.2692 45.9722C14.8775 46.8333 14.9108 47.8333 15.3609 48.6574C15.8276 49.5 16.6361 50 17.5363 50H32.4637C33.3639 50 34.1724 49.5 34.6391 48.6574C35.0892 47.8333 35.1309 46.8333 34.7308 45.9722L32.3221 40.7407H45.8326C48.133 40.7407 50 38.6667 50 36.1111V4.62963C50 2.07407 48.133 0 45.8326 0H45.841ZM48.3414 4.62963V33.3333H29.1715V1.85185H45.841C47.2162 1.85185 48.3414 3.10185 48.3414 4.62963ZM4.16736 1.85185H27.5046V33.3333H1.66694V4.62963C1.66694 3.10185 2.79213 1.85185 4.16736 1.85185ZM33.2472 46.8148C33.4306 47.2222 33.2889 47.5648 33.2139 47.6944C33.1389 47.8333 32.9138 48.1481 32.4637 48.1481H17.5363C17.0862 48.1481 16.8611 47.8241 16.7861 47.6944C16.7138 47.563 16.6728 47.4133 16.667 47.2594C16.6612 47.1055 16.6907 46.9525 16.7528 46.8148L19.5449 40.7407H30.4467L33.2389 46.8148H33.2472ZM48.3414 36.1111C48.3414 37.6389 47.2162 38.8889 45.841 38.8889H4.16736C2.79213 38.8889 1.66694 37.6389 1.66694 36.1111V35.1852H48.3414V36.1111Z" fill="#121212"/>
<path d="M5.8343 17.5926H24.1707C25.0875 17.5926 25.8376 16.7593 25.8376 15.7407V6.48148C25.8376 5.46296 25.0875 4.62962 24.1707 4.62962H5.8343C4.91748 4.62962 4.16736 5.46296 4.16736 6.48148V15.7407C4.16736 16.7593 4.91748 17.5926 5.8343 17.5926ZM5.8343 6.48148H24.1707V15.7407H5.8343V6.48148ZM5.8343 30.5555H12.5021C13.4189 30.5555 14.169 29.7222 14.169 28.7037V21.2963C14.169 20.2778 13.4189 19.4444 12.5021 19.4444H5.8343C4.91748 19.4444 4.16736 20.2778 4.16736 21.2963V28.7037C4.16736 29.7222 4.91748 30.5555 5.8343 30.5555ZM5.8343 21.2963H12.5021V28.7037H5.8343V21.2963ZM24.1707 19.4444H17.5029C16.5861 19.4444 15.836 20.2778 15.836 21.2963V28.7037C15.836 29.7222 16.5861 30.5555 17.5029 30.5555H24.1707C25.0875 30.5555 25.8376 29.7222 25.8376 28.7037V21.2963C25.8376 20.2778 25.0875 19.4444 24.1707 19.4444ZM17.5029 28.7037V21.2963H24.1707V28.7037H17.5029ZM45.0075 28.7037H32.5054C32.047 28.7037 31.6719 29.1204 31.6719 29.6296C31.6719 30.1389 32.047 30.5555 32.5054 30.5555H45.0075C45.4659 30.5555 45.841 30.1389 45.841 29.6296C45.841 29.1204 45.4659 28.7037 45.0075 28.7037ZM45.0075 24.0741H32.5054C32.047 24.0741 31.6719 24.4907 31.6719 25C31.6719 25.5093 32.047 25.9259 32.5054 25.9259H45.0075C45.4659 25.9259 45.841 25.5093 45.841 25C45.841 24.4907 45.4659 24.0741 45.0075 24.0741ZM45.0075 19.4444H32.5054C32.047 19.4444 31.6719 19.8611 31.6719 20.3704C31.6719 20.8796 32.047 21.2963 32.5054 21.2963H45.0075C45.4659 21.2963 45.841 20.8796 45.841 20.3704C45.841 19.8611 45.4659 19.4444 45.0075 19.4444ZM42.007 14.6296C42.157 14.75 42.3321 14.8148 42.5071 14.8148C42.7571 14.8148 43.0072 14.6852 43.1739 14.4444L45.6743 10.7407C45.7838 10.5811 45.8431 10.3859 45.8431 10.1852C45.8431 9.98446 45.7838 9.78928 45.6743 9.62962L43.1739 5.92592C42.8988 5.51851 42.3737 5.43518 42.007 5.74073C41.6403 6.04629 41.5653 6.62962 41.8403 7.03703L43.9657 10.1852L41.8403 13.3333C41.5653 13.7407 41.6403 14.3241 42.007 14.6296ZM31.0052 10.7407L33.5056 14.4444C33.6723 14.6852 33.9223 14.8148 34.1724 14.8148C34.3474 14.8148 34.5224 14.75 34.6724 14.6296C35.0392 14.3241 35.1142 13.7407 34.8391 13.3333L32.7138 10.1852L34.8391 7.03703C35.1142 6.62962 35.0392 6.04629 34.6724 5.74073C34.3057 5.43518 33.7806 5.51851 33.5056 5.92592L31.0052 9.62962C30.8957 9.78928 30.8364 9.98446 30.8364 10.1852C30.8364 10.3859 30.8957 10.5811 31.0052 10.7407ZM37.3062 14.787C37.4124 14.8171 37.5229 14.8235 37.6314 14.8057C37.7398 14.788 37.8439 14.7464 37.9378 14.6835C38.0316 14.6206 38.1133 14.5376 38.178 14.4394C38.2427 14.3411 38.2892 14.2295 38.3147 14.1111L39.9817 6.7037C40.0084 6.58573 40.0139 6.46305 39.9977 6.34273C39.9816 6.22241 39.9441 6.10684 39.8876 6.00268C39.831 5.89851 39.7564 5.80783 39.6682 5.73585C39.5799 5.66388 39.4796 5.61204 39.3732 5.58333C39.267 5.55256 39.1563 5.54573 39.0477 5.56321C38.9391 5.5807 38.8347 5.62216 38.7407 5.68514C38.6468 5.74813 38.5651 5.83138 38.5005 5.92998C38.4359 6.02857 38.3898 6.14053 38.3647 6.25925L36.6978 13.6667C36.5894 14.1667 36.8561 14.6667 37.3062 14.787Z" fill="#121212"/>
</svg>
